<?xml version="1.0" standalone="no"?>
<!DOCTYPE svg PUBLIC "-//W3C//DTD SVG 20010904//EN"
 "http://www.w3.org/TR/2001/REC-SVG-20010904/DTD/svg10.dtd">
<svg version="1.0" xmlns="http://www.w3.org/2000/svg"
 width="4167.000000pt" height="867.000000pt" viewBox="1 0 27267.000000 4267.000000"
 preserveAspectRatio="xMidYMid meet">
<metadata>
Created by potrace 1.15, written by Peter Selinger 2001-2017
</metadata>
<g transform="translate(0.000000,4267.000000) scale(0.100000,-0.100000)"
fill="#ffffff" stroke="none">
<path d="M19460 38280 c0 -22 -6 -33 -22 -39 -13 -5 -40 -22 -60 -39 -58 -46
-136 -60 -358 -66 -107 -3 -210 -10 -229 -15 -18 -6 -57 -26 -85 -45 -72 -50
-146 -66 -296 -66 -146 0 -177 -7 -233 -53 -71 -57 -81 -60 -259 -68 -175 -8
-190 -12 -247 -62 -54 -47 -95 -58 -220 -64 -136 -5 -157 -12 -191 -58 -38
-53 -74 -65 -187 -65 -131 -1 -170 -11 -207 -54 -42 -49 -83 -62 -211 -71
-104 -7 -110 -9 -137 -37 -15 -17 -28 -34 -28 -38 0 -4 -12 -16 -27 -26 -22
-15 -54 -20 -141 -25 l-112 -5 -48 -46 c-60 -58 -80 -68 -139 -68 -84 -1 -120
-15 -166 -63 -47 -51 -91 -67 -179 -67 -72 0 -106 -13 -140 -54 -35 -43 -84
-66 -140 -66 -72 0 -110 -16 -141 -61 -34 -50 -78 -69 -158 -69 -59 0 -62 -1
-103 -44 -52 -56 -74 -66 -155 -76 -61 -8 -68 -12 -106 -54 -48 -53 -64 -62
-130 -71 -85 -11 -93 -14 -115 -50 -29 -46 -70 -67 -149 -76 -60 -6 -67 -10
-99 -48 -39 -47 -70 -65 -127 -75 -65 -11 -73 -15 -94 -51 -27 -47 -76 -75
-129 -75 -40 0 -49 -5 -95 -54 -55 -56 -63 -60 -138 -71 -41 -5 -51 -11 -73
-46 -34 -51 -80 -79 -130 -79 -34 0 -46 -6 -80 -44 -44 -46 -82 -70 -133 -80
-21 -5 -45 -23 -69 -53 -40 -48 -85 -73 -133 -73 -21 0 -35 -8 -48 -27 -44
-64 -80 -93 -118 -93 -32 0 -44 -8 -94 -60 -46 -47 -65 -60 -98 -66 -50 -8
-54 -10 -81 -55 -26 -44 -62 -69 -96 -69 -42 0 -73 -17 -95 -53 -18 -30 -73
-66 -123 -81 -9 -3 -26 -23 -37 -45 -26 -50 -56 -71 -100 -71 -29 0 -43 -9
-91 -59 -42 -44 -66 -61 -94 -66 -28 -6 -43 -16 -60 -44 -29 -46 -47 -60 -93
-76 -24 -8 -46 -26 -60 -46 -48 -73 -54 -79 -81 -79 -36 0 -44 -7 -73 -58 -24
-45 -62 -72 -98 -72 -11 0 -28 -12 -38 -27 -34 -51 -84 -93 -109 -93 -16 0
-37 -12 -54 -31 -16 -16 -41 -44 -56 -60 -15 -16 -45 -34 -66 -39 -21 -6 -38
-14 -38 -19 0 -20 -64 -101 -80 -101 -34 0 -51 -12 -72 -54 -28 -56 -47 -76
-72 -76 -36 0 -63 -27 -76 -77 -8 -26 -19 -57 -26 -68 -6 -11 -15 -33 -19 -50
-9 -38 -23 -55 -46 -55 -39 0 -43 -33 -44 -310 0 -285 2 -298 52 -322 26 -13
36 -34 79 -173 20 -62 29 -73 62 -77 21 -2 33 -15 56 -61 21 -42 36 -59 55
-64 43 -10 89 -42 111 -79 13 -20 32 -36 48 -40 74 -15 161 -48 183 -68 13
-12 38 -31 54 -42 29 -19 90 -19 3153 -24 l3124 -5 26 -32 c15 -17 35 -43 45
-57 13 -19 27 -26 50 -26 39 0 91 -30 108 -62 6 -13 39 -51 73 -85 34 -34 68
-69 76 -77 8 -9 34 -32 57 -52 23 -19 45 -44 48 -55 4 -11 24 -31 46 -45 21
-13 53 -43 69 -66 17 -23 44 -50 60 -59 16 -10 46 -41 66 -69 20 -27 41 -50
48 -50 14 0 65 -52 89 -92 10 -16 24 -28 32 -28 7 0 31 -21 52 -46 21 -25 46
-53 56 -62 11 -10 41 -39 68 -67 27 -27 56 -57 65 -65 21 -21 103 -102 117
-118 7 -7 32 -32 57 -56 25 -25 55 -55 66 -66 12 -12 43 -43 69 -69 25 -25 53
-53 61 -61 9 -8 36 -35 60 -60 25 -25 51 -51 57 -58 7 -7 29 -26 49 -43 21
-17 47 -46 58 -65 12 -19 27 -34 35 -34 7 0 30 -19 51 -43 22 -24 46 -51 54
-60 8 -9 32 -31 52 -48 21 -17 47 -46 58 -65 12 -19 28 -34 35 -34 8 0 31 -21
52 -46 21 -25 46 -53 56 -62 11 -10 41 -39 68 -67 27 -27 56 -57 65 -65 8 -8
36 -35 60 -60 25 -25 52 -52 61 -60 8 -8 37 -37 64 -65 28 -27 54 -54 59 -58
5 -5 32 -32 60 -60 28 -29 58 -59 67 -67 8 -8 37 -37 64 -65 28 -27 55 -54 61
-60 6 -5 33 -32 60 -60 27 -27 53 -54 58 -58 5 -5 31 -31 58 -59 70 -70 75
-75 124 -123 101 -99 166 -185 184 -243 10 -31 30 -68 44 -82 54 -51 64 -84
68 -228 l4 -134 -29 -31 c-55 -59 -73 -90 -73 -122 0 -43 -27 -105 -45 -105
-8 0 -33 -25 -56 -56 -30 -42 -332 -350 -447 -459 -6 -5 -33 -32 -60 -60 -27
-27 -54 -54 -61 -60 -6 -5 -35 -35 -64 -65 -30 -30 -60 -61 -68 -68 -13 -13
-109 -113 -174 -182 -16 -17 -44 -37 -60 -44 -17 -7 -43 -30 -58 -50 -16 -20
-43 -42 -60 -49 -52 -21 -350 -41 -427 -28 -36 6 -93 11 -127 11 -81 0 -106
11 -143 62 -17 24 -47 51 -66 61 -19 10 -50 39 -69 65 -18 26 -47 55 -65 65
-17 10 -42 36 -56 56 -14 21 -45 53 -69 70 -25 18 -52 45 -60 61 -8 16 -34 41
-57 57 -23 15 -54 45 -68 65 -14 20 -44 50 -67 67 -22 16 -49 44 -59 61 -10
17 -36 43 -57 57 -22 15 -50 43 -63 63 -13 19 -41 46 -61 60 -21 14 -49 42
-63 62 -14 21 -43 50 -66 67 -23 16 -51 45 -63 64 -11 19 -39 46 -61 61 -22
14 -51 44 -65 65 -13 22 -32 42 -42 45 -10 3 -34 24 -53 47 -19 23 -48 53 -64
68 -25 23 -55 53 -114 114 -9 10 -35 36 -57 57 -22 21 -50 49 -62 62 -13 13
-42 42 -65 66 -24 23 -52 51 -63 63 -11 11 -39 37 -61 57 -25 22 -46 52 -52
73 -12 46 -70 126 -97 135 -11 3 -75 62 -141 130 -67 68 -126 124 -130 124
-10 0 -69 54 -101 93 -12 14 -41 31 -65 37 -28 8 -59 29 -96 65 -53 52 -56 54
-126 60 -39 3 -1052 5 -2251 3 -1836 -3 -2184 -5 -2205 -17 -14 -7 -37 -28
-52 -45 -25 -30 -65 -52 -132 -72 -21 -7 -39 -25 -63 -67 -26 -43 -39 -57 -57
-57 -51 0 -96 -68 -96 -145 0 -16 -5 -43 -12 -61 -10 -27 -18 -34 -50 -39 -24
-4 -43 -15 -51 -28 -26 -47 -20 -675 8 -713 6 -10 32 -20 56 -23 42 -6 44 -7
57 -56 15 -53 107 -165 160 -196 15 -8 43 -36 62 -62 19 -25 54 -59 77 -76 23
-17 49 -44 57 -60 9 -16 31 -38 50 -49 19 -12 52 -44 72 -71 20 -28 42 -51 49
-51 14 0 85 -75 85 -90 0 -5 20 -23 45 -40 25 -17 55 -46 68 -65 13 -19 43
-48 66 -65 23 -17 50 -45 61 -63 11 -17 37 -43 57 -57 21 -14 49 -42 63 -62
14 -21 43 -50 66 -67 23 -16 51 -45 63 -64 12 -20 37 -44 56 -56 19 -11 48
-39 65 -62 16 -23 44 -50 60 -60 16 -10 43 -38 60 -61 17 -24 48 -54 68 -68
20 -14 50 -45 65 -68 16 -23 34 -42 42 -42 7 0 31 -21 52 -46 21 -25 45 -52
55 -61 16 -15 89 -88 124 -124 11 -11 39 -39 64 -63 25 -25 52 -51 60 -60 8
-9 35 -36 60 -60 25 -25 55 -55 66 -66 12 -12 41 -42 65 -65 24 -24 52 -52 62
-62 10 -10 37 -37 60 -60 23 -23 50 -50 60 -60 11 -10 41 -40 68 -68 27 -27
56 -57 65 -65 22 -22 103 -103 117 -118 7 -7 29 -26 49 -43 21 -17 47 -46 58
-65 12 -19 27 -34 33 -34 7 0 30 -20 52 -45 22 -25 48 -54 58 -63 11 -9 41
-39 68 -67 27 -27 56 -57 65 -65 22 -21 96 -96 114 -115 8 -8 32 -29 52 -46
21 -17 47 -46 58 -65 12 -19 28 -34 35 -34 8 0 31 -21 52 -46 21 -25 46 -53
56 -62 20 -18 96 -95 119 -118 7 -8 30 -28 50 -45 21 -17 47 -46 58 -65 12
-19 27 -34 35 -34 7 0 31 -21 54 -47 23 -27 48 -55 57 -63 9 -8 38 -37 65 -65
28 -27 54 -54 59 -58 5 -5 31 -31 58 -59 28 -27 58 -57 67 -66 9 -10 39 -39
66 -67 64 -64 56 -56 114 -113 66 -65 97 -96 193 -194 4 -4 26 -24 50 -44 23
-20 50 -50 59 -65 10 -16 23 -29 29 -29 6 0 29 -19 50 -43 22 -24 46 -51 54
-60 8 -9 32 -31 52 -48 21 -17 47 -46 58 -65 12 -19 27 -34 35 -34 7 0 31 -21
54 -47 23 -27 48 -55 57 -63 9 -8 38 -37 65 -65 28 -27 54 -54 59 -58 4 -5 33
-33 63 -64 31 -30 61 -60 68 -66 6 -7 34 -34 61 -62 27 -27 52 -53 56 -57 4
-4 26 -24 50 -44 23 -20 50 -50 59 -65 10 -16 23 -29 29 -29 11 0 81 -71 100
-101 5 -8 26 -25 46 -39 20 -14 47 -42 60 -62 13 -21 30 -40 40 -43 9 -3 33
-25 55 -49 46 -51 53 -59 118 -124 28 -27 56 -56 64 -63 7 -8 65 -65 127 -126
63 -62 114 -117 114 -122 0 -5 8 -12 18 -15 10 -4 32 -21 49 -39 83 -84 224
-225 256 -255 21 -19 37 -38 37 -42 0 -5 21 -25 46 -44 25 -19 58 -52 73 -73
15 -21 44 -49 64 -63 20 -13 46 -41 59 -62 13 -21 27 -38 32 -38 5 0 44 -35
87 -77 43 -43 86 -85 95 -94 9 -9 39 -38 65 -65 27 -27 54 -55 61 -62 7 -7 38
-37 68 -67 30 -30 60 -60 65 -66 6 -6 33 -33 60 -59 28 -27 57 -56 65 -65 8
-9 38 -38 65 -65 28 -27 55 -54 60 -61 6 -6 33 -33 60 -60 28 -27 54 -53 59
-58 4 -5 30 -31 57 -57 27 -27 57 -57 67 -67 9 -10 40 -40 67 -67 28 -27 57
-56 65 -65 8 -8 35 -35 60 -59 25 -25 54 -55 65 -67 11 -13 38 -39 59 -59 22
-19 51 -48 65 -64 14 -16 43 -45 65 -65 21 -20 48 -47 60 -60 11 -14 39 -41
60 -60 22 -20 51 -49 65 -65 14 -16 43 -45 65 -65 21 -20 48 -47 60 -60 11
-14 41 -43 65 -65 24 -23 53 -52 65 -66 11 -14 36 -38 55 -55 18 -16 45 -43
60 -59 14 -16 43 -45 65 -65 21 -20 48 -47 60 -60 11 -14 41 -43 65 -65 25
-23 54 -52 65 -65 12 -14 38 -41 60 -60 21 -20 48 -47 60 -60 11 -14 39 -41
60 -60 22 -20 51 -49 65 -65 14 -16 41 -43 60 -60 18 -17 45 -44 60 -60 14
-16 44 -45 65 -65 22 -20 51 -49 65 -65 14 -16 41 -43 59 -60 19 -17 46 -44
60 -59 15 -15 45 -44 66 -65 22 -20 51 -50 65 -66 14 -16 41 -43 60 -60 19
-17 46 -44 60 -60 14 -16 44 -45 65 -65 22 -20 51 -49 65 -65 14 -16 41 -43
60 -60 19 -17 46 -44 60 -60 14 -16 41 -43 59 -60 19 -17 46 -43 60 -59 15
-15 42 -42 61 -60 18 -17 47 -47 65 -66 17 -18 46 -47 65 -65 18 -17 45 -44
60 -60 14 -16 44 -45 65 -65 22 -20 51 -49 65 -65 14 -16 41 -43 60 -60 19
-17 46 -43 60 -59 14 -15 41 -42 60 -60 18 -17 47 -47 65 -66 17 -18 44 -45
60 -60 26 -24 43 -41 120 -121 24 -25 54 -54 130 -127 22 -21 51 -51 65 -67
14 -15 37 -39 51 -52 30 -28 90 -89 124 -124 14 -14 39 -39 58 -56 18 -17 45
-44 59 -60 14 -16 43 -46 65 -66 21 -21 51 -50 66 -65 14 -15 41 -42 60 -59
18 -17 45 -44 59 -60 14 -16 43 -46 65 -66 21 -21 51 -50 66 -65 14 -15 41
-42 60 -59 18 -17 45 -44 59 -60 14 -16 41 -43 60 -60 19 -17 46 -44 60 -60
14 -16 43 -45 65 -65 21 -19 50 -47 64 -62 24 -25 89 -92 127 -130 10 -10 36
-35 58 -56 22 -21 52 -51 66 -67 15 -16 42 -43 60 -60 19 -17 46 -44 60 -60
14 -16 43 -46 65 -66 21 -20 51 -49 65 -64 15 -14 45 -44 67 -66 22 -22 49
-49 60 -60 10 -12 40 -41 64 -66 25 -24 54 -53 64 -64 11 -10 37 -37 59 -58
22 -21 50 -49 61 -61 12 -11 40 -39 62 -61 22 -22 49 -49 60 -60 10 -12 40
-41 64 -66 25 -24 54 -53 64 -64 11 -10 37 -37 59 -58 53 -51 77 -76 130 -130
61 -62 74 -75 120 -120 22 -21 50 -49 61 -61 12 -12 42 -42 66 -67 25 -24 52
-51 59 -58 8 -8 34 -34 59 -58 25 -25 55 -55 66 -67 12 -12 42 -42 66 -67 56
-55 65 -64 120 -120 25 -24 54 -54 66 -64 11 -11 38 -38 60 -60 22 -22 50 -50
62 -62 11 -11 41 -41 65 -66 61 -62 74 -75 120 -120 50 -49 75 -73 131 -130
24 -25 50 -51 58 -58 17 -16 96 -96 122 -123 11 -11 39 -39 64 -63 25 -25 52
-51 60 -60 8 -9 35 -36 60 -60 56 -56 80 -80 136 -136 66 -67 66 -67 111 -106
23 -19 45 -44 48 -55 4 -11 24 -31 46 -45 21 -13 53 -43 69 -66 17 -23 44 -50
60 -59 16 -10 46 -41 66 -69 20 -27 41 -50 48 -50 14 0 65 -52 89 -92 10 -16
24 -28 31 -28 8 0 29 -18 47 -39 59 -68 76 -85 109 -110 17 -13 43 -41 57 -62
17 -26 35 -40 56 -44 52 -10 76 -26 112 -76 l34 -47 93 -4 c88 -3 98 -6 188
-51 l95 -47 1894 0 1893 -1 67 40 c74 44 144 61 258 61 86 0 96 4 161 69 28
28 62 52 81 56 17 4 39 18 49 32 38 55 73 91 95 97 14 3 31 23 47 58 22 45 31
54 64 63 21 6 43 20 49 30 9 14 13 141 15 418 l3 399 -42 64 c-23 36 -52 73
-64 82 -12 9 -30 38 -39 64 -22 56 -41 75 -81 80 -24 2 -35 13 -60 57 -23 42
-38 57 -65 66 -27 9 -42 24 -65 66 -24 42 -37 55 -58 57 -27 3 -45 23 -76 85
-11 21 -27 35 -49 41 -26 7 -41 22 -64 63 -23 40 -37 55 -61 61 -25 6 -39 21
-62 63 -22 39 -37 55 -55 57 -34 5 -48 18 -76 74 -19 37 -31 49 -57 56 -25 6
-39 20 -62 63 -24 42 -37 55 -60 59 -23 4 -37 18 -63 60 -23 40 -42 58 -65 66
-24 8 -39 24 -60 63 -22 40 -35 53 -59 58 -28 5 -46 26 -84 98 -6 11 -26 24
-43 29 -25 7 -40 22 -63 63 -23 42 -37 55 -60 60 -28 5 -47 28 -84 97 -5 10
-25 24 -44 30 -27 8 -41 23 -63 64 -22 41 -35 54 -59 59 -29 6 -47 25 -77 86
-10 21 -25 33 -41 35 -34 5 -48 18 -75 72 -18 36 -31 49 -57 56 -26 7 -39 21
-61 62 -20 37 -36 54 -55 58 -38 9 -50 21 -77 74 -18 36 -32 49 -57 56 -25 7
-39 21 -60 59 -20 37 -35 53 -60 61 -24 8 -42 26 -65 65 -24 38 -42 56 -65 63
-24 8 -40 24 -60 61 -20 37 -35 53 -60 61 -24 8 -42 26 -67 67 -25 42 -40 57
-56 57 -26 0 -45 20 -74 77 -15 30 -28 43 -51 48 -30 7 -62 41 -79 88 -7 17
-21 29 -38 33 -39 9 -51 21 -79 75 -18 36 -31 49 -54 54 -30 7 -61 41 -79 88
-7 17 -21 29 -38 33 -39 9 -51 21 -77 72 -17 34 -32 48 -57 56 -26 8 -40 23
-61 61 -20 37 -35 53 -60 61 -24 8 -41 25 -63 62 -19 34 -39 54 -55 58 -36 10
-49 22 -76 75 -18 36 -31 49 -53 54 -35 7 -55 28 -76 78 -11 26 -23 39 -43 43
-38 9 -50 21 -77 74 -18 36 -31 49 -57 56 -25 7 -40 22 -63 62 -20 34 -39 54
-55 58 -36 10 -49 22 -76 76 -13 26 -30 48 -38 48 -31 0 -43 44 -50 180 -9
170 -9 179 -2 328 6 131 8 137 73 218 18 23 33 46 33 51 0 20 44 66 76 79 20
8 40 28 50 47 23 45 54 77 76 77 11 0 26 13 36 31 30 55 53 79 88 94 20 8 39
26 46 42 17 40 59 83 80 83 11 0 26 14 36 31 30 55 53 79 88 94 20 8 39 26 46
42 17 40 59 83 80 83 11 0 26 14 36 31 30 54 53 79 88 94 21 9 38 25 47 47 18
41 42 62 88 77 23 8 44 25 60 49 35 54 78 72 176 72 45 0 113 7 151 15 61 13
79 13 139 0 37 -8 102 -15 143 -15 87 0 126 -18 162 -75 15 -22 35 -38 57 -45
30 -8 139 -109 231 -216 14 -16 36 -36 49 -44 13 -8 36 -32 52 -53 15 -21 42
-48 60 -60 18 -12 49 -42 67 -67 19 -25 47 -52 63 -62 16 -10 42 -36 59 -59
17 -23 44 -51 60 -60 16 -10 46 -41 66 -69 20 -27 42 -50 49 -50 13 0 95 -86
95 -100 0 -5 15 -17 34 -28 19 -11 51 -43 72 -71 21 -28 43 -51 50 -51 6 0 28
-21 50 -46 45 -53 56 -63 106 -105 21 -17 46 -45 58 -64 11 -18 29 -35 39 -38
10 -2 38 -29 61 -58 23 -29 55 -61 71 -71 16 -10 42 -36 59 -59 17 -23 43 -50
58 -59 16 -10 39 -32 53 -49 13 -18 34 -42 47 -54 13 -12 43 -42 67 -67 25
-25 52 -52 61 -60 8 -8 34 -34 57 -57 23 -23 50 -50 60 -60 11 -10 41 -40 68
-68 27 -27 56 -57 65 -65 9 -8 38 -37 65 -65 27 -27 54 -54 60 -60 7 -5 34
-32 60 -60 27 -27 56 -57 65 -65 9 -8 38 -37 65 -65 27 -27 54 -54 60 -60 7
-5 34 -32 60 -60 27 -27 56 -57 65 -65 9 -8 38 -37 65 -65 61 -62 57 -58 101
-95 21 -17 47 -47 58 -66 12 -19 28 -34 35 -34 8 0 33 -23 57 -51 24 -28 49
-56 57 -63 8 -6 36 -33 63 -61 27 -27 52 -53 56 -56 4 -4 30 -30 59 -59 28
-28 59 -59 68 -68 16 -16 109 -110 123 -124 4 -4 24 -21 44 -38 21 -17 47 -47
58 -66 12 -19 27 -34 35 -34 7 0 30 -19 51 -43 22 -24 46 -50 54 -59 58 -59
123 -125 132 -133 6 -5 35 -35 65 -65 29 -30 58 -59 64 -65 7 -5 34 -32 61
-60 27 -27 54 -54 60 -60 6 -5 33 -32 59 -60 27 -27 56 -57 65 -65 9 -8 38
-37 65 -65 28 -27 55 -54 61 -60 5 -5 62 -62 125 -125 63 -63 119 -119 125
-125 5 -5 62 -62 125 -125 63 -63 119 -119 125 -125 5 -5 62 -62 125 -125 63
-63 119 -119 125 -125 5 -5 89 -89 185 -185 96 -96 179 -179 185 -185 5 -5
177 -176 382 -380 204 -203 394 -385 423 -403 28 -18 59 -44 68 -58 22 -34 73
-54 137 -54 80 -1 136 -17 209 -61 58 -35 72 -39 131 -39 55 0 76 6 145 40 88
43 145 59 214 60 51 0 109 17 109 31 0 5 20 30 45 54 32 33 52 45 74 45 32 0
41 9 74 70 19 37 29 45 67 54 37 9 48 18 62 46 10 19 18 57 18 83 0 70 22 116
60 123 47 10 60 37 60 124 0 96 6 117 36 124 13 4 37 24 53 46 23 32 29 53 34
117 4 43 17 106 29 141 19 54 26 64 50 69 43 9 50 25 49 125 0 51 3 98 7 104
4 5 21 16 39 23 59 24 75 68 81 223 l5 136 44 11 c58 15 68 41 77 193 8 140
19 178 50 178 58 0 76 54 76 236 0 129 0 131 25 142 15 7 38 38 61 83 33 67
36 79 38 173 2 117 34 230 65 239 42 11 52 47 58 213 4 100 11 166 19 179 6
11 15 39 19 61 5 30 13 44 30 52 41 19 55 103 58 349 2 122 4 134 23 147 11 8
26 34 33 58 7 24 23 53 34 66 27 28 35 111 36 349 1 174 13 263 37 263 25 0
52 59 68 149 12 66 17 175 20 461 l4 374 33 9 c19 5 39 13 44 18 6 6 13 76 16
157 4 81 12 181 17 222 8 50 11 484 11 1290 0 806 -3 1240 -11 1290 -5 41 -13
142 -17 223 -5 131 -8 150 -25 163 -11 8 -28 14 -37 14 -24 0 -27 39 -33 430
-6 322 -12 396 -43 498 -12 39 -22 54 -39 58 -33 8 -44 73 -45 267 -1 236 -10
320 -35 349 -12 13 -27 41 -34 63 -7 22 -23 52 -36 67 -21 26 -22 36 -23 200
-1 244 -10 294 -53 300 -40 6 -64 102 -71 281 -6 164 -16 204 -53 213 -36 9
-67 115 -70 240 -2 94 -5 106 -38 173 -23 45 -46 76 -61 83 -25 11 -25 13 -26
147 -1 170 -12 212 -59 227 -20 6 -40 22 -47 35 -6 13 -15 79 -19 147 -8 142
-22 182 -70 194 -39 10 -50 47 -60 196 -7 117 -27 160 -81 175 -38 11 -43 26
-43 139 0 78 -2 88 -22 102 -12 9 -30 16 -39 16 -22 0 -58 111 -66 206 -5 61
-12 83 -34 114 -16 22 -40 42 -53 46 -29 7 -36 28 -36 119 0 100 -6 113 -52
127 -48 14 -68 54 -68 133 0 74 -16 112 -49 120 -30 6 -71 76 -71 121 0 14 -5
46 -11 71 -10 37 -18 48 -45 59 -42 17 -61 54 -73 137 -11 78 -24 105 -55 113
-32 8 -62 67 -70 136 -8 78 -21 108 -46 108 -29 0 -67 65 -74 129 -10 75 -30
121 -55 121 -25 0 -66 71 -73 125 -9 70 -34 115 -67 121 -33 7 -56 51 -64 122
-7 58 -48 118 -85 127 -25 5 -32 14 -42 51 -7 25 -27 64 -45 87 -42 56 -61 92
-80 155 -19 58 -37 82 -65 82 -21 0 -60 72 -60 112 0 26 -58 110 -87 127 -10
5 -27 35 -39 68 -18 49 -26 60 -55 69 -38 12 -65 55 -75 119 -4 29 -18 51 -54
86 -27 27 -53 62 -60 85 -19 59 -38 84 -64 84 -27 0 -58 41 -74 100 -5 19 -25
51 -43 71 -19 19 -50 64 -68 100 -43 81 -58 99 -87 99 -19 0 -27 10 -44 58
-15 40 -31 63 -53 77 -17 11 -46 46 -64 79 -18 32 -44 67 -57 77 -13 10 -45
59 -70 108 -42 81 -50 91 -79 96 -28 6 -37 15 -60 66 -15 33 -33 59 -42 59
-19 0 -52 36 -76 83 -11 21 -31 42 -44 47 -13 5 -36 28 -51 51 -14 23 -50 65
-79 93 -34 34 -55 64 -60 86 -11 49 -79 127 -124 141 -21 7 -57 34 -88 66 -50
53 -54 55 -120 63 -86 10 -112 20 -161 64 -21 19 -51 40 -66 46 -35 13 -316
13 -351 0 -15 -6 -46 -26 -68 -45 -45 -38 -118 -65 -179 -65 -30 0 -45 -7 -64
-27 -71 -78 -91 -95 -117 -100 -35 -7 -136 -126 -157 -186 -21 -59 -28 -67
-58 -67 -15 0 -32 -4 -38 -8 -40 -27 -39 95 -42 -3200 l-2 -3143 -33 -52 c-18
-29 -48 -82 -65 -119 -18 -38 -39 -69 -50 -73 -11 -3 -32 -24 -47 -47 -30 -45
-677 -698 -691 -698 -12 0 -81 -81 -118 -140 -15 -25 -46 -63 -67 -85 -21 -22
-49 -56 -61 -75 -13 -19 -40 -46 -61 -60 -20 -14 -48 -41 -62 -61 -13 -21 -40
-47 -59 -58 -19 -12 -45 -38 -57 -57 -12 -20 -40 -49 -63 -65 -23 -17 -52 -47
-66 -67 -14 -20 -45 -50 -68 -65 -23 -16 -49 -41 -57 -57 -8 -16 -35 -43 -60
-61 -24 -17 -55 -49 -69 -70 -14 -20 -39 -46 -56 -56 -18 -10 -47 -40 -66 -66
-19 -27 -50 -57 -68 -68 -19 -11 -45 -37 -59 -58 -14 -21 -43 -49 -64 -62 -21
-12 -42 -29 -46 -36 -4 -7 -26 -34 -49 -60 -22 -26 -48 -65 -58 -88 -20 -46
-34 -60 -73 -69 -19 -5 -33 -17 -42 -39 -21 -52 -54 -87 -81 -87 -18 0 -29
-11 -48 -48 -28 -55 -40 -67 -77 -75 -18 -5 -33 -21 -50 -54 -18 -36 -35 -53
-66 -67 -30 -14 -47 -31 -59 -58 -20 -44 -39 -63 -74 -72 -16 -4 -35 -24 -55
-58 -22 -38 -39 -55 -64 -63 -23 -8 -39 -22 -52 -50 -26 -52 -45 -72 -78 -78
-19 -4 -32 -16 -41 -37 -20 -49 -48 -78 -80 -85 -24 -5 -36 -17 -51 -50 -23
-49 -45 -71 -74 -76 -13 -3 -30 -24 -47 -60 -22 -46 -32 -57 -57 -62 -23 -5
-35 -17 -52 -49 -29 -59 -48 -78 -75 -78 -18 0 -29 -11 -48 -48 -28 -55 -40
-67 -79 -76 -17 -4 -32 -17 -39 -34 -23 -52 -48 -80 -78 -87 -23 -5 -36 -18
-54 -54 -28 -53 -40 -66 -77 -74 -14 -4 -32 -19 -39 -34 -29 -58 -51 -82 -80
-88 -23 -5 -36 -18 -54 -54 -28 -54 -40 -66 -77 -74 -17 -4 -31 -18 -39 -37
-20 -49 -48 -78 -80 -85 -23 -5 -36 -18 -54 -54 -27 -53 -40 -65 -76 -75 -16
-4 -36 -24 -55 -58 -22 -37 -39 -54 -63 -62 -25 -8 -40 -24 -60 -61 -21 -38
-35 -53 -61 -61 -25 -8 -40 -22 -57 -56 -26 -51 -38 -63 -77 -72 -17 -4 -32
-17 -39 -34 -23 -52 -48 -80 -78 -87 -23 -5 -36 -18 -54 -54 -28 -54 -40 -66
-79 -75 -17 -4 -31 -16 -38 -33 -17 -47 -49 -81 -79 -88 -23 -5 -36 -18 -51
-48 -29 -57 -48 -77 -74 -77 -16 0 -31 -15 -56 -57 -25 -41 -43 -59 -67 -67
-25 -8 -40 -24 -60 -61 -20 -37 -36 -53 -60 -61 -23 -7 -41 -25 -65 -63 -23
-39 -41 -57 -65 -65 -25 -8 -40 -24 -60 -61 -21 -38 -35 -52 -60 -59 -25 -7
-39 -20 -57 -56 -27 -53 -39 -65 -77 -74 -19 -4 -35 -21 -55 -58 -22 -41 -35
-55 -61 -62 -26 -7 -39 -20 -57 -56 -27 -54 -41 -67 -75 -72 -16 -2 -31 -14
-41 -35 -30 -61 -48 -80 -77 -86 -24 -5 -37 -18 -59 -59 -22 -41 -36 -56 -63
-64 -19 -6 -39 -20 -44 -30 -37 -69 -56 -92 -84 -97 -23 -5 -37 -18 -60 -60
-23 -41 -38 -56 -63 -63 -17 -5 -37 -18 -43 -29 -38 -72 -56 -93 -84 -98 -24
-5 -37 -18 -59 -58 -21 -39 -36 -55 -60 -63 -23 -8 -42 -26 -65 -66 -26 -42
-40 -56 -63 -60 -23 -4 -36 -17 -60 -59 -23 -43 -37 -57 -62 -63 -26 -7 -38
-19 -57 -56 -28 -56 -42 -69 -76 -74 -18 -2 -33 -18 -55 -57 -23 -42 -37 -57
-62 -63 -24 -6 -38 -21 -61 -61 -23 -41 -38 -56 -64 -63 -22 -6 -38 -20 -49
-41 -31 -62 -49 -82 -76 -85 -21 -2 -34 -15 -58 -57 -23 -42 -38 -57 -65 -66
-23 -7 -41 -22 -51 -42 -32 -63 -49 -82 -76 -85 -21 -2 -34 -15 -58 -57 -22
-41 -38 -57 -63 -65 -25 -9 -40 -25 -60 -61 -22 -41 -34 -52 -69 -63 -29 -10
-44 -21 -53 -42 -24 -59 -53 -74 -153 -81 -67 -4 -106 -13 -142 -30 -61 -30
-125 -29 -222 1 -37 12 -112 25 -166 29 l-99 6 -34 40 c-19 22 -41 47 -50 55
-9 8 -38 38 -65 65 -28 28 -55 55 -61 60 -6 6 -30 30 -54 55 -24 25 -53 54
-64 65 -12 11 -41 40 -66 65 -24 25 -50 51 -58 58 -8 8 -34 34 -58 58 -77 78
-85 86 -124 123 -22 21 -49 49 -61 62 -11 13 -35 35 -53 48 -17 13 -42 41 -56
62 -13 22 -30 39 -38 39 -15 0 -77 65 -95 98 -6 12 -19 23 -28 26 -10 4 -35
31 -57 62 -21 30 -48 59 -61 64 -26 10 -51 85 -41 124 8 34 -19 92 -52 112
-35 20 -52 81 -52 183 l0 67 35 13 c40 14 80 79 71 114 -3 11 0 42 5 68 9 43
24 61 143 181 73 73 138 138 144 143 6 6 33 33 61 60 27 28 56 57 65 65 9 8
38 38 65 65 26 28 53 55 59 60 6 6 33 33 60 60 27 28 54 55 61 60 6 6 35 35
64 65 30 30 59 60 65 65 9 8 74 74 132 133 8 9 32 35 54 59 21 24 44 43 51 43
8 0 23 15 35 34 11 19 37 49 58 66 20 17 40 34 44 38 14 14 107 108 123 124 9
9 39 39 67 66 27 28 53 54 58 59 5 4 31 31 58 58 27 28 55 55 63 61 8 7 33 35
57 63 24 28 49 51 57 51 7 0 23 15 35 34 11 19 37 49 58 66 44 37 40 33 101
95 27 28 56 57 65 65 9 8 38 38 65 65 26 28 53 55 59 60 6 6 33 33 61 60 27
28 56 57 65 65 9 8 38 38 65 65 26 28 53 55 60 60 6 6 33 33 60 60 27 28 56
57 65 65 9 8 38 38 65 65 27 28 56 57 65 65 9 8 29 30 43 49 15 19 40 41 55
51 15 9 41 36 58 59 17 23 43 49 59 59 16 10 44 37 63 62 18 25 49 55 67 67
18 12 46 40 62 63 16 22 42 48 58 58 16 10 48 42 71 71 23 29 51 56 61 58 10
3 28 20 39 38 12 19 37 47 58 64 50 42 61 52 106 105 22 25 44 46 50 46 7 0
29 23 50 51 21 28 53 60 72 71 19 11 34 23 34 28 0 14 82 100 95 100 7 0 29
23 49 50 20 28 50 59 66 69 16 9 43 36 60 59 16 23 48 53 69 66 22 14 42 34
46 45 3 11 25 36 48 55 52 45 59 51 105 102 20 23 44 45 53 50 9 5 36 33 59
62 22 29 52 57 65 62 13 5 31 22 39 37 7 15 31 42 51 58 20 17 47 41 59 54 57
64 92 99 104 102 7 2 29 26 50 53 20 27 49 57 64 65 15 9 45 39 67 68 22 28
49 54 60 58 11 3 30 21 43 38 31 46 71 86 85 87 7 0 25 19 42 43 16 23 42 52
57 62 34 24 59 50 102 104 18 22 40 41 47 41 8 0 26 17 40 38 13 20 39 48 57
62 18 14 44 38 58 53 14 16 40 43 58 60 19 18 48 47 65 66 18 19 47 49 66 67
50 48 58 56 100 99 21 22 51 52 67 66 16 15 45 45 64 67 19 23 40 41 46 42 6
0 26 19 45 43 18 23 44 51 58 62 29 25 56 52 101 105 19 22 39 40 46 40 6 0
24 17 40 37 16 21 41 49 57 63 42 36 67 62 106 109 19 22 40 41 47 41 7 0 26
19 43 43 16 23 39 49 52 57 24 15 57 48 95 91 11 13 38 40 60 60 21 20 56 55
76 78 21 22 42 41 48 41 6 0 24 19 40 43 17 23 42 51 56 62 35 27 62 53 106
103 21 23 42 42 47 42 5 0 24 19 41 43 17 23 43 51 57 62 35 27 62 54 101 104
18 22 39 41 46 41 7 0 35 27 62 60 27 32 56 62 65 65 33 11 98 102 109 150 15
69 26 83 70 95 30 8 42 17 47 38 5 15 8 1017 8 2227 l0 2200 -30 59 c-17 33
-42 67 -58 77 -16 9 -39 39 -52 67 -25 55 -34 62 -79 71 -24 5 -37 18 -61 61
-23 42 -37 56 -60 60 -49 10 -78 29 -122 78 l-42 47 -363 3 c-200 2 -377 0
-394 -3 -23 -4 -42 -20 -70 -57 -31 -41 -48 -54 -80 -63 -44 -11 -74 -30 -74
-48 0 -20 -51 -77 -70 -77 -19 0 -43 -26 -72 -79 -9 -16 -33 -38 -54 -48 -20
-10 -42 -27 -48 -38 -27 -50 -59 -85 -76 -85 -19 0 -29 -11 -73 -80 -14 -21
-35 -38 -54 -44 -18 -5 -35 -17 -38 -26 -12 -36 -65 -100 -85 -100 -19 0 -29
-11 -73 -80 -13 -21 -35 -38 -54 -43 -22 -7 -36 -20 -48 -48 -21 -45 -51 -74
-85 -82 -17 -4 -33 -22 -50 -53 -14 -26 -33 -51 -42 -56 -10 -4 -26 -12 -35
-17 -10 -4 -29 -28 -44 -52 -15 -27 -40 -52 -64 -64 -21 -11 -43 -29 -49 -40
-30 -54 -57 -83 -84 -88 -20 -4 -33 -15 -42 -37 -20 -48 -48 -78 -79 -85 -17
-3 -33 -17 -42 -33 -27 -55 -58 -89 -87 -95 -20 -4 -33 -15 -42 -37 -20 -48
-48 -78 -79 -85 -21 -4 -33 -17 -46 -45 -21 -46 -51 -75 -86 -83 -18 -5 -31
-19 -44 -46 -21 -47 -40 -66 -76 -74 -18 -5 -31 -19 -44 -46 -21 -47 -50 -76
-86 -84 -18 -5 -31 -19 -44 -46 -21 -47 -40 -66 -76 -75 -17 -3 -31 -17 -39
-36 -20 -48 -48 -78 -79 -85 -17 -3 -33 -17 -42 -33 -27 -55 -58 -89 -87 -95
-20 -4 -33 -15 -42 -37 -20 -49 -48 -78 -80 -85 -24 -5 -36 -17 -51 -50 -24
-50 -44 -70 -80 -78 -18 -5 -31 -19 -44 -46 -20 -46 -39 -65 -77 -77 -18 -6
-35 -25 -50 -54 -17 -33 -35 -50 -65 -64 -30 -14 -47 -31 -59 -58 -20 -44 -39
-63 -74 -72 -16 -4 -35 -24 -55 -59 -22 -39 -39 -55 -64 -63 -25 -8 -40 -22
-57 -56 -26 -51 -38 -63 -75 -71 -17 -4 -31 -18 -39 -37 -20 -49 -48 -78 -80
-85 -24 -5 -36 -17 -51 -50 -24 -50 -44 -70 -80 -78 -18 -5 -31 -19 -44 -46
-21 -48 -40 -66 -78 -75 -20 -5 -33 -19 -48 -52 -23 -47 -52 -74 -81 -74 -11
0 -27 -18 -42 -48 -28 -55 -40 -67 -79 -76 -20 -5 -33 -19 -48 -52 -23 -47
-52 -74 -81 -74 -11 0 -27 -18 -42 -48 -27 -54 -40 -66 -76 -76 -16 -4 -35
-24 -55 -58 -23 -40 -38 -55 -63 -62 -26 -7 -39 -20 -57 -56 -26 -52 -39 -64
-75 -74 -16 -4 -35 -24 -55 -58 -23 -40 -38 -54 -63 -60 -24 -7 -37 -18 -47
-41 -21 -52 -54 -87 -81 -87 -18 0 -29 -11 -48 -48 -28 -55 -40 -67 -79 -76
-17 -4 -32 -17 -39 -34 -20 -45 -48 -76 -79 -87 -19 -7 -40 -29 -61 -64 -25
-41 -41 -57 -65 -63 -24 -6 -36 -19 -53 -52 -24 -50 -33 -60 -72 -72 -18 -6
-39 -28 -60 -63 -24 -40 -41 -57 -63 -63 -22 -6 -38 -22 -60 -60 -23 -40 -38
-55 -63 -62 -25 -7 -39 -20 -54 -50 -28 -56 -47 -76 -73 -76 -16 0 -31 -15
-56 -57 -26 -44 -41 -59 -67 -65 -25 -7 -37 -18 -53 -54 -22 -46 -52 -74 -80
-74 -9 0 -31 -25 -50 -57 -26 -44 -41 -59 -66 -65 -24 -6 -38 -21 -61 -61 -22
-39 -39 -56 -61 -63 -22 -6 -40 -24 -63 -63 -25 -42 -41 -57 -66 -63 -25 -7
-37 -19 -54 -55 -17 -36 -31 -50 -65 -65 -24 -10 -43 -23 -43 -27 0 -4 -13
-28 -29 -52 -21 -30 -39 -46 -58 -49 -19 -3 -33 -15 -44 -37 -30 -61 -48 -80
-77 -86 -23 -5 -37 -19 -61 -61 -24 -43 -38 -57 -63 -64 -22 -5 -38 -18 -48
-38 -24 -50 -53 -80 -82 -87 -18 -5 -34 -20 -47 -45 -22 -44 -46 -67 -83 -81
-16 -6 -34 -24 -42 -43 -21 -46 -47 -74 -78 -81 -18 -5 -35 -24 -56 -61 -24
-41 -37 -55 -61 -59 -21 -4 -35 -17 -47 -39 -31 -60 -57 -88 -81 -88 -16 0
-29 -10 -41 -31 -28 -52 -60 -86 -86 -93 -16 -4 -34 -23 -51 -55 -25 -45 -43
-60 -88 -75 -10 -3 -24 -20 -32 -38 -19 -45 -49 -75 -83 -82 -17 -4 -35 -19
-46 -37 -24 -41 -65 -77 -101 -89 -18 -6 -38 -23 -48 -43 -10 -17 -36 -45 -59
-62 -22 -16 -53 -47 -69 -68 -15 -21 -48 -54 -73 -73 -25 -19 -46 -39 -46 -43
0 -5 -16 -23 -36 -42 -20 -19 -96 -94 -169 -166 -72 -73 -136 -133 -141 -133
-5 0 -20 -17 -32 -37 -13 -21 -42 -51 -64 -68 -22 -16 -50 -44 -62 -61 -12
-18 -44 -49 -71 -71 -28 -22 -56 -51 -63 -65 -8 -14 -31 -36 -52 -49 -21 -13
-45 -36 -54 -50 -8 -14 -35 -43 -58 -63 -51 -44 -47 -39 -98 -98 -23 -26 -49
-50 -58 -53 -10 -2 -30 -25 -45 -49 -25 -39 -76 -76 -106 -76 -6 0 -22 -18
-36 -40 -36 -56 -59 -68 -155 -75 -47 -3 -120 -13 -164 -22 -72 -15 -85 -15
-165 0 -47 9 -119 19 -160 22 -91 8 -114 18 -145 66 -16 24 -42 45 -70 58 -30
13 -56 35 -78 66 -18 25 -47 54 -65 65 -17 10 -44 37 -58 59 -15 21 -45 51
-66 66 -22 14 -49 41 -60 60 -11 19 -36 43 -54 54 -19 11 -50 41 -69 68 -19
26 -48 56 -66 66 -17 10 -42 36 -57 58 -14 21 -41 49 -60 60 -19 12 -48 40
-64 63 -17 23 -46 52 -67 66 -20 14 -48 42 -62 62 -14 21 -44 51 -67 67 -45
33 -73 75 -73 113 -1 41 -43 113 -68 116 -43 6 -52 55 -52 269 1 106 3 200 7
208 3 8 13 15 22 15 45 1 85 65 85 140 1 66 19 94 66 104 22 4 33 15 44 41 19
45 59 85 85 85 15 0 28 14 45 48 27 54 40 66 76 76 16 4 35 24 55 58 23 40 38
55 63 62 26 7 39 20 57 56 27 53 39 65 78 74 17 4 31 16 38 33 17 47 49 81 79
88 23 5 36 18 51 48 29 58 48 77 75 77 18 0 29 11 48 48 28 55 40 67 79 76 19
5 33 17 42 39 18 43 60 87 83 87 13 0 31 19 53 57 27 44 41 59 67 65 22 6 36
17 43 35 18 47 49 81 79 88 23 5 36 18 54 54 28 54 40 66 79 75 17 4 31 16 38
33 17 47 49 81 79 88 23 5 36 18 51 48 29 58 48 77 75 77 18 0 29 11 48 48 28
55 40 67 79 76 20 5 33 19 48 52 22 46 52 74 80 74 9 0 31 25 50 57 26 44 41
59 66 65 24 6 38 21 62 63 25 44 38 57 62 62 21 4 35 16 49 42 26 51 51 77 82
84 18 5 33 20 49 53 17 36 32 51 65 66 24 10 44 23 44 27 0 4 13 28 29 52 21
30 39 46 58 49 19 3 33 15 44 37 30 61 48 80 77 86 23 5 37 19 61 61 24 43 38
57 63 64 22 5 38 18 48 38 24 50 53 80 82 87 18 5 34 20 47 45 22 44 46 67 84
81 15 6 32 22 37 36 17 45 51 83 80 88 20 5 35 20 58 60 22 39 39 56 61 63 22
6 40 24 63 64 26 43 39 56 61 58 20 2 34 13 45 34 28 51 61 85 87 92 15 4 32
21 44 44 27 53 53 80 81 84 17 2 32 16 47 46 29 54 41 67 75 75 18 5 35 21 48
45 29 54 42 68 75 78 17 6 36 23 45 40 27 52 57 84 79 84 14 0 28 11 39 31 30
55 55 81 89 95 20 9 38 26 44 42 14 37 59 82 81 82 11 0 26 14 36 31 28 52 60
86 87 93 15 4 33 21 45 44 29 54 55 82 79 82 12 0 28 12 37 28 48 77 60 91 86
96 19 4 33 17 47 43 23 45 58 80 86 85 11 1 28 18 37 37 22 45 55 78 84 85 14
4 31 21 43 44 22 44 46 67 83 81 16 6 34 24 42 43 21 47 51 78 76 78 13 0 27
11 38 31 30 55 53 79 88 94 21 9 38 25 45 42 14 38 58 83 81 83 11 0 26 14 36
31 28 52 60 86 87 93 14 4 32 20 41 39 23 45 64 87 86 87 11 0 26 14 36 31 28
52 60 86 87 93 15 4 32 21 44 44 22 44 46 67 83 81 15 6 35 25 44 43 23 46 54
78 76 78 11 0 26 13 36 31 30 55 53 79 88 94 20 8 39 26 46 42 17 40 59 83 80
83 11 0 26 14 36 31 30 55 53 79 88 94 20 8 39 26 46 42 17 40 59 83 80 83 11
0 26 14 36 31 28 53 63 89 83 89 12 0 27 13 37 31 30 55 55 81 88 95 20 8 40
28 50 47 23 45 54 77 76 77 11 0 26 13 36 31 31 57 63 89 88 89 22 0 109 74
184 157 8 9 32 36 54 60 21 24 45 43 52 43 7 0 20 13 28 28 8 16 34 45 58 66
44 38 47 40 112 113 21 24 44 43 51 43 7 0 22 15 33 34 11 18 37 46 57 62 21
16 44 36 52 46 8 9 35 36 60 61 25 25 52 53 61 62 10 9 40 39 67 66 61 61 53
53 114 114 27 28 57 57 68 67 10 9 35 37 56 62 21 25 44 46 52 46 7 0 23 15
35 34 11 19 37 48 58 65 20 17 43 37 50 45 23 24 103 103 120 119 10 9 34 36
55 61 21 25 45 46 53 46 7 0 25 17 38 39 14 21 39 49 56 62 18 13 42 35 53 48
12 13 39 41 61 62 21 20 47 45 57 55 37 37 111 113 127 129 10 9 37 36 62 61
25 24 53 52 64 63 26 27 105 107 122 123 8 7 34 33 58 58 24 25 51 52 60 60 9
8 38 38 65 65 27 28 57 57 66 67 9 9 37 36 62 61 25 25 51 51 59 59 8 7 34 33
58 58 56 56 80 80 136 136 25 24 51 49 57 56 7 7 34 34 59 59 26 26 56 55 66
67 40 41 107 108 125 124 10 9 36 38 58 63 22 25 45 45 52 45 7 0 24 18 38 40
14 22 42 51 63 65 21 14 53 45 70 70 17 25 46 54 64 65 18 11 44 37 58 57 14
21 42 49 63 63 20 14 48 42 62 62 14 21 42 49 63 63 20 14 48 42 62 62 14 21
42 49 63 63 20 14 46 40 57 58 11 18 40 47 65 64 25 18 54 47 65 65 10 17 37
44 59 59 24 15 53 48 71 80 22 40 36 54 53 54 51 1 53 11 57 218 0 25 4 32 20
32 22 0 40 34 40 73 0 12 7 36 16 52 20 36 30 166 17 215 -7 27 -16 37 -41 44
-17 6 -34 17 -37 25 -4 9 -11 68 -16 131 -15 170 -39 220 -108 220 -13 0 -26
18 -44 59 -23 53 -29 60 -64 68 -27 6 -44 19 -60 43 -46 72 -54 80 -80 80 -32
0 -99 38 -136 79 -31 33 -80 51 -142 51 -54 1 -118 31 -160 77 -33 36 -36 37
-122 42 -99 7 -129 20 -166 76 -27 43 -29 44 -135 52 -100 7 -163 30 -188 68
-27 42 -64 55 -154 55 -99 0 -143 16 -192 72 -39 45 -77 56 -196 57 -64 1
-100 18 -139 67 -34 43 -72 53 -208 54 -109 2 -140 12 -207 70 l-51 44 -135 8
c-170 10 -201 19 -262 73 -28 25 -54 45 -58 46 -4 0 -72 4 -152 8 -158 8 -184
17 -263 83 l-39 33 -206 5 c-223 6 -241 10 -292 65 -45 50 -74 55 -318 62
l-227 6 -60 30 c-33 17 -91 40 -130 51 -66 21 -70 23 -73 54 l-3 32 -2705 0
-2704 0 0 -30z"/>
<path d="M7239 28915 c-14 -8 -33 -25 -42 -38 -27 -42 -94 -67 -176 -67 -78 0
-82 -2 -143 -82 -18 -24 -39 -39 -65 -45 -33 -7 -41 -15 -64 -63 -25 -51 -29
-55 -75 -65 -62 -13 -77 -38 -71 -120 7 -99 -1 -116 -55 -132 -55 -16 -64 -34
-71 -158 -6 -90 -36 -159 -90 -207 -27 -24 -30 -35 -37 -110 -10 -106 -21
-133 -59 -146 -46 -16 -58 -46 -64 -159 -7 -126 -33 -196 -78 -212 -38 -13
-49 -45 -49 -144 0 -72 -4 -89 -31 -142 -17 -33 -45 -72 -62 -87 l-32 -27 -1
-105 c-1 -80 -5 -110 -16 -123 -9 -10 -24 -36 -33 -58 -10 -22 -31 -52 -47
-67 -27 -26 -28 -30 -28 -125 0 -74 -5 -111 -20 -151 -11 -29 -20 -61 -20 -71
0 -13 -8 -21 -22 -23 -44 -6 -59 -62 -62 -220 -3 -116 -6 -143 -19 -153 -9 -6
-26 -37 -37 -68 -12 -31 -27 -57 -35 -57 -22 0 -27 -30 -33 -198 -4 -145 -7
-164 -23 -173 -11 -5 -26 -34 -35 -66 -9 -31 -26 -64 -37 -73 -17 -14 -21 -35
-29 -136 -5 -65 -7 -158 -4 -206 6 -104 1 -126 -29 -134 -36 -9 -53 -35 -65
-99 -22 -117 -29 -213 -29 -427 l-1 -218 -25 0 c-42 0 -63 -31 -70 -107 -10
-109 -11 -113 -45 -113 l-30 0 0 -2360 0 -2360 30 0 c23 0 31 -5 35 -22 26
-120 31 -133 55 -145 13 -6 28 -22 34 -35 5 -13 12 -145 15 -294 4 -179 10
-276 18 -285 6 -8 14 -31 18 -52 9 -45 40 -87 65 -87 23 0 34 -45 25 -101 -4
-22 -4 -112 0 -201 7 -153 9 -163 32 -186 13 -13 31 -43 40 -65 8 -23 24 -49
33 -58 16 -14 19 -38 22 -188 l3 -171 27 -23 c14 -12 36 -42 49 -67 12 -25 26
-48 32 -51 5 -4 11 -70 12 -151 4 -164 17 -213 59 -224 14 -3 26 -13 26 -20 0
-8 9 -40 20 -71 14 -40 20 -83 20 -143 0 -104 6 -129 34 -140 12 -5 29 -28 40
-57 10 -26 25 -53 34 -60 11 -9 15 -38 16 -123 l1 -111 32 -27 c17 -15 45 -54
62 -87 27 -53 31 -70 31 -145 0 -98 14 -134 52 -138 38 -5 66 -87 77 -224 8
-114 23 -148 63 -148 11 0 28 -5 39 -10 17 -10 19 -22 19 -114 0 -110 3 -118
51 -129 35 -9 66 -82 75 -177 9 -110 36 -164 97 -195 25 -12 39 -65 31 -116
-8 -54 16 -104 59 -120 37 -13 39 -18 66 -173 13 -68 24 -86 57 -86 35 0 56
-41 64 -125 8 -85 29 -125 65 -125 31 0 55 -43 55 -102 1 -97 27 -148 75 -148
30 0 46 -39 55 -134 8 -89 27 -116 81 -116 38 0 49 -24 49 -107 0 -87 14 -114
67 -132 34 -12 45 -22 57 -56 9 -22 16 -51 16 -64 0 -21 28 -67 76 -121 12
-14 29 -49 39 -78 14 -45 21 -54 47 -59 43 -8 68 -54 68 -123 0 -73 25 -114
76 -126 33 -8 39 -15 54 -60 10 -28 29 -63 44 -79 38 -40 62 -84 75 -130 15
-57 47 -105 70 -105 13 0 25 -16 41 -52 13 -31 43 -71 71 -98 27 -26 50 -58
54 -75 12 -54 37 -114 54 -128 9 -8 29 -19 45 -24 22 -7 33 -21 52 -67 13 -31
37 -74 55 -94 17 -19 39 -52 48 -71 25 -56 79 -129 100 -136 11 -3 28 -28 41
-60 17 -43 30 -58 59 -72 24 -12 45 -34 61 -65 14 -26 35 -58 45 -70 44 -52
75 -97 75 -111 0 -21 69 -107 92 -116 12 -4 35 -34 52 -67 27 -51 36 -59 63
-62 27 -3 34 -10 56 -61 20 -45 32 -61 55 -69 21 -7 41 -28 64 -69 55 -93 106
-156 146 -179 20 -12 55 -44 77 -72 22 -27 70 -77 106 -111 62 -57 71 -61 132
-70 77 -11 95 -20 155 -75 l45 -41 176 -3 c96 -2 190 -1 209 3 19 4 45 20 65
42 41 46 99 73 160 73 45 0 51 3 112 65 47 48 71 65 91 65 39 0 134 96 134
136 0 16 9 48 20 72 16 35 24 42 48 42 15 0 37 6 48 14 19 14 19 59 22 3170
l2 3156 25 6 c15 4 39 25 55 49 23 34 28 50 24 74 -10 46 13 118 40 125 11 3
39 33 61 66 22 33 45 60 52 60 6 0 22 15 34 33 13 17 38 46 57 62 47 40 70 64
112 113 19 23 40 42 47 42 6 0 26 19 42 43 17 23 43 51 58 62 16 11 39 33 53
49 14 17 40 44 59 60 38 34 57 53 113 115 21 23 41 41 46 41 5 0 24 19 43 43
18 23 44 51 58 62 37 30 131 129 131 138 0 4 6 7 14 7 8 0 29 19 46 43 17 23
43 51 57 62 37 29 64 56 98 99 17 21 40 42 53 47 13 5 30 21 39 36 8 16 38 46
65 67 27 22 58 55 69 73 11 18 24 33 28 33 7 0 164 154 248 241 18 19 45 45
60 59 15 14 45 45 65 68 21 23 42 42 47 42 5 0 24 19 43 43 18 23 44 51 57 62
33 28 60 55 103 103 21 23 41 42 45 42 5 0 31 27 58 59 28 33 53 60 57 60 7 1
280 272 324 322 12 13 39 40 60 59 22 19 56 54 77 78 20 23 41 42 46 42 6 0
23 17 38 38 15 20 41 48 57 62 40 34 60 54 134 136 35 38 75 81 88 95 18 19
39 28 74 33 42 6 57 14 102 60 l53 53 103 8 c114 7 285 -2 317 -17 11 -6 38
-30 61 -53 35 -37 49 -45 92 -51 55 -7 91 -33 118 -87 10 -17 26 -30 45 -34
30 -6 61 -37 91 -92 10 -18 25 -31 36 -31 22 0 53 -32 76 -78 10 -20 31 -39
51 -48 34 -14 57 -39 87 -93 10 -18 25 -31 36 -31 22 0 53 -32 76 -78 10 -20
31 -39 51 -48 34 -14 75 -57 75 -79 0 -16 33 -45 52 -45 18 0 50 -34 72 -77
10 -19 30 -39 50 -47 32 -13 76 -59 76 -79 0 -6 23 -32 50 -57 45 -42 50 -50
50 -91 0 -53 33 -129 58 -136 32 -8 62 -108 62 -207 0 -115 -14 -162 -49 -169
-41 -8 -65 -58 -57 -118 8 -60 -13 -119 -43 -119 -20 0 -43 -25 -73 -79 -9
-16 -32 -37 -51 -44 -24 -11 -43 -31 -65 -71 -25 -43 -38 -56 -56 -56 -26 0
-43 -17 -75 -76 -16 -28 -32 -43 -54 -50 -23 -7 -39 -23 -61 -61 -24 -43 -36
-54 -63 -59 -20 -4 -41 -17 -51 -31 -39 -57 -74 -92 -95 -95 -12 -2 -31 -19
-44 -38 -45 -70 -55 -81 -83 -86 -17 -4 -33 -17 -41 -33 -27 -54 -59 -88 -87
-94 -20 -4 -33 -15 -42 -37 -20 -48 -48 -78 -79 -85 -21 -4 -33 -17 -46 -45
-21 -46 -50 -75 -85 -83 -17 -4 -33 -22 -50 -54 -18 -34 -36 -53 -62 -65 -24
-12 -45 -32 -57 -55 -23 -45 -47 -68 -81 -76 -17 -4 -33 -22 -50 -54 -17 -33
-36 -53 -62 -65 -20 -10 -39 -27 -43 -38 -13 -41 -54 -78 -95 -85 -33 -6 -46
-15 -71 -51 -16 -24 -47 -55 -67 -69 -20 -14 -48 -42 -62 -62 -14 -21 -42 -49
-63 -63 -20 -14 -48 -41 -61 -60 -13 -20 -43 -49 -66 -65 -23 -16 -48 -41 -56
-56 -15 -29 -73 -79 -92 -79 -6 0 -24 -19 -40 -42 -17 -24 -41 -54 -56 -67
-14 -13 -32 -47 -41 -76 -13 -47 -18 -53 -53 -63 -29 -9 -43 -21 -58 -49 -19
-37 -19 -81 -22 -2213 -2 -1639 1 -2182 9 -2205 39 -98 69 -145 95 -145 11 0
33 -56 34 -85 0 -5 14 -26 31 -45 18 -19 43 -52 57 -73 14 -21 36 -40 51 -43
44 -11 87 -42 114 -84 21 -30 35 -40 64 -45 61 -10 94 -26 145 -71 60 -54 75
-56 354 -52 l221 3 45 41 c42 39 80 57 173 83 31 9 47 22 70 58 31 49 44 58
85 67 17 4 33 20 50 53 18 34 36 53 62 65 23 11 45 32 58 55 29 55 45 73 66
73 27 0 39 10 59 50 25 50 43 68 75 75 19 4 32 17 45 45 21 46 50 75 85 83 18
5 34 23 54 62 22 43 34 55 52 55 23 0 32 10 77 80 14 21 35 39 54 44 23 7 39
23 57 57 29 53 41 64 76 72 17 4 33 22 50 54 17 32 38 54 64 68 22 11 44 29
50 40 28 52 57 83 83 88 21 4 34 18 53 54 19 36 35 53 67 67 24 11 45 29 49
40 11 36 54 86 74 86 19 0 28 10 73 79 12 19 36 39 54 45 23 8 39 24 56 56 16
33 34 50 64 64 30 14 47 31 59 58 20 44 40 63 75 71 18 5 32 19 44 48 21 45
58 79 86 79 12 0 27 17 43 48 28 55 40 67 77 75 17 4 31 18 39 37 20 49 48 78
80 85 24 5 36 17 51 50 24 50 44 70 80 78 18 5 31 19 44 46 21 48 40 66 77 75
19 4 32 17 42 41 19 45 59 85 85 85 15 0 28 14 45 48 27 54 40 66 76 76 16 4
35 24 55 59 22 39 39 55 64 63 25 8 40 22 57 56 26 51 38 63 75 71 17 4 31 18
39 37 20 49 48 78 80 85 23 5 36 18 54 54 27 53 40 65 76 75 16 4 35 24 55 58
23 40 38 54 62 60 25 6 38 19 54 51 29 58 48 77 75 77 18 0 29 11 48 48 28 55
40 67 78 76 19 4 35 21 55 58 22 41 35 55 61 62 26 7 39 20 57 56 27 52 39 65
76 73 14 4 32 19 39 34 29 57 51 82 80 88 23 5 36 18 51 48 28 55 48 77 71 77
11 0 26 13 36 31 38 71 58 86 117 91 52 4 58 8 108 61 l53 57 157 0 c181 0
206 -7 265 -70 34 -37 44 -42 97 -47 71 -7 97 -22 127 -72 26 -43 36 -51 64
-51 21 0 48 -31 77 -87 11 -20 29 -35 50 -42 24 -8 41 -25 63 -64 21 -37 37
-53 54 -55 29 -5 57 -34 77 -80 8 -19 25 -37 41 -43 37 -14 61 -37 83 -82 14
-27 28 -39 49 -43 27 -6 51 -33 86 -98 6 -11 22 -23 37 -27 34 -9 49 -25 76
-77 16 -32 29 -44 52 -49 29 -6 54 -33 77 -86 6 -15 21 -31 32 -35 34 -13 70
-72 70 -116 1 -62 33 -125 68 -132 43 -9 52 -47 52 -218 0 -117 -3 -153 -17
-179 -17 -34 -50 -83 -70 -105 -7 -7 -13 -20 -13 -27 0 -25 -33 -85 -47 -85
-7 0 -31 -26 -55 -57 -23 -32 -46 -60 -51 -62 -11 -4 -24 -18 -81 -85 -22 -25
-45 -46 -51 -46 -7 0 -24 -17 -38 -39 -14 -21 -40 -49 -57 -62 -33 -25 -50
-42 -109 -110 -18 -21 -39 -39 -46 -39 -7 0 -29 -23 -49 -50 -20 -28 -50 -59
-66 -68 -16 -10 -46 -40 -65 -65 -20 -26 -49 -54 -65 -62 -16 -8 -35 -25 -41
-38 -16 -32 -71 -87 -85 -87 -7 0 -26 -19 -43 -43 -16 -23 -42 -52 -57 -62
-34 -24 -59 -50 -102 -104 -18 -22 -39 -41 -47 -41 -8 0 -27 -19 -44 -42 -16
-24 -42 -52 -56 -63 -36 -28 -54 -45 -100 -98 -22 -26 -45 -47 -50 -47 -6 0
-28 -23 -48 -50 -21 -28 -51 -59 -67 -69 -17 -10 -43 -36 -60 -59 -16 -23 -48
-53 -70 -67 -22 -14 -40 -29 -40 -34 0 -13 -76 -91 -89 -91 -6 0 -22 -17 -36
-38 -13 -20 -39 -48 -56 -62 -36 -28 -53 -45 -105 -107 -20 -24 -42 -43 -49
-43 -8 0 -24 -15 -36 -32 -13 -18 -38 -46 -57 -63 -46 -40 -70 -64 -111 -114
-19 -22 -40 -41 -47 -41 -7 0 -26 -19 -43 -42 -16 -24 -42 -52 -58 -63 -15
-11 -39 -33 -53 -49 -14 -17 -40 -44 -59 -60 -40 -36 -63 -59 -111 -115 -19
-22 -40 -40 -46 -41 -6 0 -26 -19 -44 -42 -19 -24 -44 -52 -58 -63 -38 -32
-64 -59 -104 -103 -21 -23 -42 -42 -47 -42 -5 0 -25 -21 -44 -47 -20 -27 -46
-55 -58 -63 -29 -19 -57 -47 -92 -94 -16 -20 -39 -41 -52 -46 -13 -5 -32 -21
-41 -36 -23 -34 -73 -84 -85 -84 -5 0 -22 -18 -38 -41 -16 -22 -47 -55 -69
-72 -22 -18 -59 -55 -83 -84 -24 -28 -50 -52 -56 -52 -7 -1 -27 -20 -43 -43
-17 -23 -43 -51 -57 -63 -33 -24 -57 -49 -103 -103 -19 -23 -40 -41 -46 -42
-6 0 -26 -19 -45 -42 -18 -24 -44 -52 -58 -63 -39 -33 -64 -58 -101 -103 -19
-23 -40 -42 -45 -42 -6 0 -33 -27 -60 -59 -28 -33 -58 -63 -67 -66 -10 -3 -28
-21 -40 -38 -13 -18 -35 -42 -50 -55 -32 -27 -193 -187 -224 -223 -12 -13 -39
-40 -60 -59 -21 -20 -56 -55 -76 -78 -21 -23 -42 -42 -47 -42 -6 0 -23 -17
-38 -37 -15 -21 -41 -49 -57 -63 -43 -36 -136 -134 -136 -142 0 -5 -6 -8 -14
-8 -7 0 -35 -27 -62 -60 -27 -32 -56 -62 -66 -65 -9 -3 -29 -22 -44 -43 -16
-20 -39 -46 -52 -57 -51 -44 -632 -628 -632 -636 0 -5 -5 -9 -11 -9 -6 0 -63
-54 -127 -119 -69 -71 -132 -125 -153 -134 -43 -18 -74 -65 -84 -127 -13 -80
-30 -110 -63 -110 -17 0 -37 -9 -48 -21 -18 -20 -19 -43 -22 -343 -2 -178 1
-338 5 -357 8 -28 15 -36 46 -43 31 -8 38 -16 55 -60 11 -28 25 -77 32 -109
12 -61 21 -70 81 -81 32 -6 41 -14 65 -61 25 -48 33 -55 73 -65 31 -8 59 -25
90 -56 56 -57 63 -60 136 -69 69 -8 124 -35 154 -76 25 -33 74 -49 153 -49 77
0 105 -12 158 -69 l45 -48 90 -8 c104 -8 115 -12 176 -72 45 -43 46 -44 140
-52 118 -11 145 -21 190 -73 l37 -42 118 -6 c66 -4 130 -12 144 -19 14 -7 43
-33 65 -57 l40 -45 105 -5 c148 -7 184 -18 236 -73 l44 -45 143 -6 c157 -6
175 -11 232 -77 26 -29 39 -35 95 -43 36 -5 108 -10 160 -10 107 0 162 -19
216 -71 42 -41 82 -48 259 -49 167 0 205 -10 260 -69 16 -17 45 -35 65 -40 19
-5 133 -13 253 -16 238 -8 218 -3 311 -79 32 -25 47 -29 138 -37 57 -4 193 -8
303 -9 110 0 218 -5 240 -11 22 -6 78 -28 125 -49 47 -21 97 -41 113 -44 22
-5 27 -12 27 -36 l0 -30 2065 0 2065 0 0 29 c0 27 4 30 67 45 37 10 103 35
147 57 l79 39 236 0 c308 1 362 8 410 53 68 65 75 67 201 68 63 0 174 4 247 8
l132 8 55 50 c31 29 68 53 87 57 17 3 95 6 173 6 173 1 203 7 261 58 56 50 96
60 262 66 137 5 182 17 203 55 5 11 27 30 47 43 34 20 54 24 182 28 l144 6 31
36 c55 63 74 70 219 79 l132 8 40 45 c22 24 51 50 65 57 14 8 76 16 143 19
l119 5 36 43 c45 50 88 67 201 75 84 7 86 7 130 51 61 59 72 63 176 71 l89 8
46 48 c53 57 81 69 158 69 83 0 128 16 157 55 34 44 75 61 161 70 81 8 80 7
117 58 37 48 74 67 137 67 60 0 82 10 122 56 31 35 91 58 181 69 40 5 52 12
80 47 42 53 93 78 157 78 45 0 55 4 81 32 16 18 29 35 29 38 0 12 78 50 103
50 44 0 77 18 98 54 28 48 61 67 127 72 91 8 100 12 131 58 32 46 60 61 130
69 36 5 52 14 91 55 44 46 71 61 142 76 17 4 34 20 48 44 28 50 53 64 125 73
46 6 63 13 75 30 42 62 75 86 128 94 47 6 55 11 82 50 32 47 81 75 130 75 23
0 40 9 61 31 16 17 29 35 29 39 0 14 63 47 103 54 29 5 44 16 65 46 27 39 83
74 134 85 18 3 33 17 44 38 26 51 55 77 85 77 45 0 75 16 97 52 23 36 87 78
120 78 13 0 33 15 49 37 45 59 74 83 100 83 24 0 54 27 100 88 14 19 38 34 65
41 33 8 50 21 71 51 26 39 64 63 119 74 17 4 38 22 58 51 30 44 73 75 104 75
8 0 28 17 43 37 36 48 62 72 93 84 14 5 36 29 49 55 27 50 38 58 93 68 30 5
41 15 63 52 26 44 59 66 115 78 14 3 47 31 75 65 30 35 61 61 77 65 29 6 77
68 97 126 24 70 47 103 82 114 22 7 35 19 40 36 11 41 10 669 -2 740 -12 75
-27 95 -77 107 -32 8 -37 14 -54 65 -17 50 -23 57 -51 63 -41 9 -60 26 -81 74
-13 28 -29 43 -59 56 -23 10 -63 40 -88 67 l-46 49 -95 8 c-86 7 -102 12 -174
52 l-79 44 -2980 2 c-2008 2 -2995 6 -3028 13 -26 5 -73 10 -103 10 -73 0
-117 20 -151 69 -15 22 -40 45 -56 52 -28 12 -87 72 -87 89 0 5 -20 23 -45 40
-25 17 -55 46 -68 65 -13 19 -43 49 -66 65 -23 17 -51 46 -62 65 -12 19 -36
44 -56 56 -19 12 -48 40 -64 62 -16 22 -45 51 -64 64 -19 13 -46 40 -60 61
-14 20 -42 48 -62 62 -21 14 -49 42 -63 63 -14 20 -40 46 -57 57 -18 11 -49
42 -69 70 -20 27 -41 50 -46 50 -6 0 -28 19 -50 43 -21 23 -47 51 -59 62 -11
11 -40 40 -65 65 -66 67 -66 67 -111 106 -23 19 -45 44 -48 54 -3 10 -29 35
-56 55 -28 20 -59 51 -70 70 -12 21 -33 38 -53 45 -33 11 -70 44 -98 91 -9 14
-31 30 -49 35 -21 6 -42 23 -56 44 -44 69 -54 80 -72 80 -21 0 -53 33 -72 74
-8 17 -32 39 -54 50 -25 14 -48 36 -64 65 -15 27 -35 48 -56 57 -34 14 -75 57
-75 79 0 16 -33 45 -52 45 -18 0 -50 34 -72 78 -9 18 -29 38 -44 44 -34 15
-72 48 -72 63 0 21 -40 65 -59 65 -21 0 -52 33 -75 78 -9 18 -29 37 -44 43
-32 12 -72 48 -72 64 0 21 -40 65 -59 65 -21 0 -52 33 -75 77 -10 20 -30 39
-51 48 -20 8 -43 28 -53 46 -29 53 -53 79 -72 79 -19 0 -54 37 -82 89 -10 18
-25 31 -36 31 -22 0 -53 32 -76 78 -10 20 -31 39 -51 48 -34 14 -57 39 -87 93
-10 18 -25 31 -36 31 -22 0 -53 32 -76 78 -10 20 -31 39 -51 48 -34 14 -57 39
-87 93 -10 18 -25 31 -36 31 -22 0 -53 32 -76 77 -10 19 -30 39 -50 47 -33 14
-76 59 -76 81 0 16 -33 45 -52 45 -18 0 -53 40 -80 89 -10 17 -25 31 -36 31
-21 0 -63 43 -80 83 -7 16 -26 34 -46 42 -35 15 -58 39 -88 94 -10 17 -25 31
-36 31 -21 0 -63 43 -80 83 -7 16 -26 34 -46 42 -35 15 -58 39 -88 94 -10 18
-25 31 -36 31 -22 0 -53 32 -76 78 -9 18 -29 37 -44 43 -38 15 -62 39 -79 77
-9 22 -26 38 -47 47 -35 15 -58 40 -88 94 -10 17 -25 31 -36 31 -23 0 -67 45
-81 83 -7 17 -24 33 -45 42 -35 15 -58 39 -88 94 -10 17 -25 31 -36 31 -21 0
-63 43 -80 83 -7 16 -26 34 -46 42 -35 15 -58 39 -88 94 -10 18 -25 31 -36 31
-22 0 -53 32 -76 77 -10 19 -30 39 -50 47 -33 14 -58 40 -88 95 -10 18 -25 31
-36 31 -22 0 -53 32 -76 78 -9 18 -29 37 -44 43 -37 14 -61 37 -83 81 -12 23
-29 40 -44 44 -27 7 -59 41 -87 93 -11 20 -25 31 -38 31 -25 0 -55 31 -76 78
-9 21 -27 39 -48 47 -35 15 -58 40 -88 94 -10 17 -25 31 -36 31 -21 0 -63 43
-80 82 -6 16 -26 34 -45 42 -34 14 -59 40 -89 95 -10 17 -25 31 -36 31 -21 0
-63 43 -80 83 -6 15 -24 32 -39 38 -38 14 -62 37 -84 82 -14 26 -28 39 -47 43
-26 5 -38 19 -86 97 -9 15 -25 27 -34 27 -22 0 -63 42 -86 87 -9 19 -27 35
-41 39 -27 7 -59 41 -87 93 -11 20 -25 31 -38 31 -25 0 -51 27 -81 83 -14 27
-28 39 -50 44 -24 4 -37 18 -61 59 -21 37 -38 56 -56 61 -31 7 -57 35 -78 81
-8 19 -26 37 -42 43 -37 14 -61 37 -83 81 -10 20 -29 40 -41 43 -33 10 -68 45
-85 83 -7 18 -21 35 -31 38 -44 14 -62 30 -87 76 -20 37 -34 50 -55 55 -29 5
-49 28 -80 88 -10 19 -25 32 -43 35 -19 3 -37 19 -58 49 -16 24 -29 48 -29 52
0 5 -17 16 -37 24 -37 16 -56 36 -83 90 -9 19 -24 31 -40 33 -28 4 -54 31 -81
83 -12 24 -28 39 -45 43 -31 8 -45 23 -75 79 -14 27 -28 39 -50 44 -29 5 -47
26 -85 97 -6 11 -22 23 -37 27 -34 9 -49 25 -76 77 -16 32 -29 44 -52 49 -29
5 -47 26 -85 98 -6 11 -21 22 -34 23 -30 5 -53 28 -79 79 -15 30 -28 43 -50
48 -29 6 -55 35 -78 87 -8 18 -23 30 -45 36 -25 6 -40 21 -66 63 -23 39 -42
57 -65 65 -24 8 -39 24 -60 63 -22 40 -35 53 -59 58 -28 5 -46 26 -84 98 -6
11 -26 24 -43 29 -25 7 -40 22 -63 63 -23 40 -37 55 -61 61 -25 6 -40 21 -66
65 -25 42 -40 57 -56 57 -26 0 -45 20 -74 78 -16 32 -29 44 -52 49 -30 6 -60
39 -78 86 -7 18 -21 29 -43 35 -25 6 -41 21 -66 63 -23 39 -42 57 -65 65 -23
7 -40 25 -62 62 -22 38 -38 54 -60 60 -22 6 -39 23 -64 65 -19 32 -41 57 -50
57 -28 0 -58 28 -80 74 -15 33 -28 47 -48 52 -39 9 -51 21 -79 76 -15 30 -31
48 -42 48 -29 0 -58 27 -81 74 -15 33 -28 47 -48 52 -39 9 -51 21 -79 76 -19
37 -30 48 -48 48 -27 0 -49 22 -75 75 -13 28 -29 42 -52 50 -25 8 -42 25 -64
63 -19 34 -39 54 -55 58 -36 10 -49 22 -74 72 -17 34 -32 48 -57 56 -25 8 -42
24 -64 63 -22 39 -38 55 -60 61 -21 6 -39 22 -60 59 -21 35 -42 56 -70 69 -28
14 -46 32 -63 64 -15 29 -32 48 -50 54 -39 13 -51 24 -78 78 -19 37 -30 48
-48 48 -27 0 -60 35 -81 87 -9 22 -22 33 -44 38 -33 7 -61 36 -81 85 -8 19
-22 33 -39 36 -36 9 -56 29 -80 79 -15 33 -27 45 -51 50 -32 7 -60 36 -80 85
-8 19 -22 33 -39 36 -36 9 -55 28 -76 75 -14 30 -26 42 -48 46 -29 6 -79 63
-92 104 -4 10 -18 22 -33 25 -37 9 -56 28 -77 75 -14 30 -26 42 -47 46 -30 6
-69 49 -87 95 -6 17 -20 28 -40 33 -33 7 -61 36 -81 85 -8 19 -22 33 -39 36
-36 9 -56 29 -80 79 -15 33 -27 45 -51 50 -32 7 -60 36 -80 85 -9 22 -22 33
-42 37 -27 5 -54 34 -84 88 -6 11 -29 29 -50 40 -27 14 -47 35 -64 68 -17 32
-33 50 -50 54 -35 8 -54 27 -75 74 -13 27 -26 41 -44 46 -35 8 -65 37 -86 82
-12 28 -26 41 -48 48 -19 5 -41 22 -54 43 -44 69 -54 80 -73 80 -19 0 -54 40
-79 92 -9 16 -25 30 -42 33 -31 7 -59 37 -79 85 -9 22 -22 33 -42 37 -27 5
-54 34 -84 88 -6 11 -29 29 -50 40 -27 14 -47 35 -64 68 -18 35 -33 50 -55 55
-18 5 -39 22 -52 43 -44 68 -54 79 -72 79 -21 0 -52 32 -75 78 -11 21 -31 39
-52 48 -20 8 -43 29 -52 45 -29 52 -53 79 -71 79 -21 0 -52 33 -75 78 -11 21
-31 39 -52 48 -20 8 -43 29 -52 45 -29 52 -53 79 -71 79 -21 0 -53 33 -72 75
-8 18 -30 37 -52 48 -21 10 -46 32 -55 48 -29 53 -53 79 -72 79 -20 0 -70 53
-70 74 0 17 -33 46 -52 46 -18 0 -50 34 -72 78 -9 18 -29 38 -44 44 -34 15
-72 48 -72 63 0 21 -40 65 -59 65 -21 0 -52 33 -75 78 -11 21 -31 39 -52 48
-20 8 -43 29 -52 45 -29 52 -53 79 -71 79 -21 0 -52 33 -75 78 -11 21 -31 39
-52 48 -20 8 -43 29 -52 45 -29 53 -53 79 -72 79 -19 0 -54 37 -82 89 -10 18
-25 31 -37 31 -20 0 -43 25 -84 90 -13 19 -33 36 -45 38 -23 3 -56 39 -84 91
-10 18 -25 31 -36 31 -22 0 -53 32 -76 78 -10 20 -31 39 -51 48 -34 14 -75 57
-75 79 0 16 -33 45 -52 45 -18 0 -50 34 -72 78 -9 18 -29 37 -44 43 -32 12
-72 48 -72 64 0 21 -40 65 -59 65 -21 0 -52 33 -75 78 -9 18 -29 37 -44 43
-37 14 -61 38 -77 77 -10 21 -26 38 -49 47 -35 15 -58 39 -88 94 -10 18 -25
31 -36 31 -22 0 -53 32 -76 78 -10 20 -31 39 -51 48 -34 14 -57 39 -87 93 -10
18 -25 31 -36 31 -22 0 -53 32 -76 77 -10 19 -30 39 -50 47 -33 14 -76 59 -76
81 0 16 -33 45 -52 45 -18 0 -50 34 -72 77 -9 19 -30 39 -49 47 -38 16 -62 40
-76 79 -7 17 -24 34 -45 42 -35 15 -58 39 -88 94 -10 17 -25 31 -36 31 -21 0
-63 43 -80 83 -7 16 -26 34 -46 42 -35 15 -58 39 -88 94 -10 18 -25 31 -36 31
-22 0 -53 32 -76 78 -10 20 -31 39 -51 48 -34 14 -57 39 -87 93 -10 18 -25 31
-36 31 -22 0 -53 32 -76 77 -10 20 -30 39 -52 48 -19 8 -59 39 -88 70 -47 48
-58 55 -93 55 -62 0 -141 28 -182 65 -21 19 -50 39 -65 45 -43 16 -335 12
-367 -5z"/>
</g>
</svg>
